<svg xmlns="http://www.w3.org/2000/svg" viewBox="0 0 1024 1024" role="img" aria-labelledby="title desc">
  <title id="title">BB Cafe Messages app icon</title>
  <desc id="desc">A green message bubble with a coffee cup and notification mark.</desc>
  <defs>
    <linearGradient id="bg" x1="150" y1="90" x2="850" y2="920" gradientUnits="userSpaceOnUse">
      <stop offset="0" stop-color="#25b861"/>
      <stop offset="0.55" stop-color="#0d7b60"/>
      <stop offset="1" stop-color="#174a42"/>
    </linearGradient>
    <linearGradient id="bubble" x1="260" y1="210" x2="760" y2="760" gradientUnits="userSpaceOnUse">
      <stop offset="0" stop-color="#fffdf5"/>
      <stop offset="1" stop-color="#eef8ef"/>
    </linearGradient>
    <filter id="shadow" x="-20%" y="-20%" width="140%" height="140%">
      <feDropShadow dx="0" dy="24" stdDeviation="28" flood-color="#07342d" flood-opacity="0.28"/>
    </filter>
  </defs>

  <rect width="1024" height="1024" rx="224" fill="url(#bg)"/>
  <circle cx="796" cy="242" r="114" fill="#8fe6a5" opacity="0.34"/>
  <circle cx="226" cy="794" r="154" fill="#0a5d4b" opacity="0.28"/>

  <path
    d="M244 248h536c76 0 138 61 138 136v230c0 75-62 136-138 136H500L354 862c-20 15-49-1-46-26l18-86h-82c-76 0-138-61-138-136V384c0-75 62-136 138-136z"
    fill="url(#bubble)"
    filter="url(#shadow)"
  />

  <path
    d="M382 466c0-23 19-42 43-42h198c24 0 43 19 43 42v92c0 68-55 123-123 123h-38c-68 0-123-55-123-123v-92z"
    fill="#174a42"
  />
  <path
    d="M666 481h40c44 0 80 36 80 80s-36 80-80 80h-54"
    fill="none"
    stroke="#174a42"
    stroke-width="42"
    stroke-linecap="round"
  />
  <path
    d="M409 714h224"
    fill="none"
    stroke="#174a42"
    stroke-width="42"
    stroke-linecap="round"
  />

  <path
    d="M444 357c-22-31-16-59 13-86"
    fill="none"
    stroke="#174a42"
    stroke-width="32"
    stroke-linecap="round"
    opacity="0.78"
  />
  <path
    d="M534 357c-22-31-16-59 13-86"
    fill="none"
    stroke="#174a42"
    stroke-width="32"
    stroke-linecap="round"
    opacity="0.78"
  />
  <path
    d="M624 357c-22-31-16-59 13-86"
    fill="none"
    stroke="#174a42"
    stroke-width="32"
    stroke-linecap="round"
    opacity="0.78"
  />

  <circle cx="760" cy="300" r="74" fill="#ff5f4f"/>
  <circle cx="760" cy="300" r="30" fill="#fffdf5"/>
</svg>
